<?xml version="1.0" encoding="UTF-8" standalone="no"?>
<!DOCTYPE svg PUBLIC "-//W3C//DTD SVG 1.1//EN" "http://www.w3.org/Graphics/SVG/1.1/DTD/svg11.dtd">
<svg width="100%" height="100%" viewBox="0 0 7212 3352" version="1.1" xmlns="http://www.w3.org/2000/svg" xmlns:xlink="http://www.w3.org/1999/xlink" xml:space="preserve" xmlns:serif="http://www.serif.com/" style="fill-rule:evenodd;clip-rule:evenodd;stroke-linecap:round;stroke-linejoin:round;stroke-miterlimit:1.5;">
    <g transform="matrix(1,0,0,1,-1840.51,0)">
        <g id="Glean" transform="matrix(0.513512,0,0,0.33736,1840.51,0)">
            <rect x="0" y="0" width="14043.3" height="9933.07" style="fill:none;"/>
            <g transform="matrix(1.15929,0,0,1.18586,-773.368,-1295.59)">
                <g transform="matrix(1.67979,0,0,2.49961,0,0)">
                    <path d="M1028.76,3008.03C1024.02,3000.73 1014.63,2998.01 1006.72,3001.65C960.744,3022.73 813.109,3090.57 763.178,3113.52C758.824,3115.52 755.474,3119.21 753.903,3123.74C752.332,3128.26 752.674,3133.23 754.852,3137.5C794.296,3209.53 976.123,3495.72 1376.36,3492.75C1834.18,3489.35 2068.14,3145.38 2068.14,2672.21C2068.14,2199.03 2050.41,2042.78 2050.41,2042.78L1756.98,2679.37C1756.98,2679.37 1789.79,3190.25 1392.18,3190.25C1171.89,3190.25 1058.73,3051.39 1028.76,3008.03Z" style="stroke:black;stroke-width:1px;"/>
                </g>
                <g transform="matrix(1.67979,0,0,2.49961,0,0)">
                    <path d="M1643.8,1510.07C1643.8,1510.07 1861.99,1412.46 1904.47,1393.46C1908.73,1391.56 1913.74,1392.55 1916.95,1395.94C1940.97,1421.27 2038.43,1524.04 2060.67,1547.5C2063.47,1550.44 2064.41,1554.68 2063.13,1558.53C2047.07,1607 1943.05,1920.78 1943.05,1920.78L1643.8,1510.07Z" style="stroke:black;stroke-width:1px;"/>
                </g>
                <path d="M2328.14,3570.25C2950.24,3570.25 3455.31,4368.17 3455.31,5350.99C3455.31,6333.81 2950.24,7131.73 2328.14,7131.73C1706.04,7131.73 1200.98,6333.81 1200.98,5350.99C1200.98,4368.17 1706.04,3570.25 2328.14,3570.25ZM2328.14,4316.92C2674.05,4316.92 2954.88,4780.27 2954.88,5350.99C2954.88,5921.71 2674.05,6385.06 2328.14,6385.06C1982.24,6385.06 1701.41,5921.71 1701.41,5350.99C1701.41,4780.27 1982.24,4316.92 2328.14,4316.92Z"/>
            </g>
            <g transform="matrix(1.94737,0,0,2.9642,-4221.45,-683.626)">
                <rect x="4078.16" y="612.357" width="370.322" height="2006.17"/>
            </g>
            <g transform="matrix(1.94737,0,0,2.9642,-4221.45,-683.626)">
                <rect x="7188.82" y="1263.37" width="357.613" height="1355.84"/>
            </g>
            <g transform="matrix(1.94737,0,0,2.9642,-3081.9,-683.626)">
                <rect x="7188.82" y="1263.37" width="357.613" height="1355.84"/>
            </g>
            <g transform="matrix(1.07822,0,0,1.14028,-371.99,-683.626)">
                <path d="M6649.6,5548.49C6649.6,5548.49 6542.82,6080.1 6090.7,6080.1C5439.15,6080.1 5453.98,5263.88 5453.98,5263.88L7220.71,5263.88C7220.71,5263.88 7376.49,3153.97 6048.68,3153.97C4836.9,3153.97 4798.91,4982.57 4798.91,4982.57C4798.91,4982.57 4762,6896.01 6074.88,6896.01C7016.06,6896.01 7194.22,5789.89 7194.22,5789.89L6649.6,5548.49ZM5474.13,4625.66L6576.7,4625.66C6576.7,4625.66 6541.67,3912.97 6029.34,3912.97C5517,3912.97 5474.13,4625.66 5474.13,4625.66Z" style="stroke:black;stroke-width:2.1px;"/>
            </g>
            <g transform="matrix(1.07822,0,0,1.14028,-371.99,-683.626)">
                <path d="M9432.21,3716.13C9432.21,3716.13 9241.5,3158.25 8637.4,3158.25C8033.3,3158.25 7513.59,3969.18 7513.59,5017.61C7513.59,5134.08 7480,6835.14 8724.86,6889.16C9969.73,6943.18 9478.76,3771.15 9478.76,3771.15L9432.21,3716.13ZM8837.34,6069.1C9215.52,6085.51 9403.13,5597.65 9400.29,5017.43C9395.9,4122.13 8942.58,3983.78 8788.45,3983.78C8450.8,3983.78 8160.32,4437.03 8160.32,5023.04C8160.32,5088.14 8141.55,6038.91 8837.34,6069.1Z" style="stroke:black;stroke-width:2.1px;"/>
            </g>
            <g transform="matrix(-1.94737,0,0,2.9642,25574,-683.626)">
                <path d="M7199.18,1429.54C7199.18,1429.54 7093.58,1212.83 6759.11,1214.93C6451,1216.86 6295.91,1533.7 6295.91,1665.94C6295.91,1852.81 6293.89,2615.53 6293.89,2615.53L6657,2616.84C6657,2616.84 6661.4,1787.38 6661.4,1762.96C6661.4,1738.54 6678.72,1543.43 6913.51,1542.53C7105.02,1541.79 7174.06,1805.38 7174.06,1805.38L7224.95,1450.7L7199.18,1429.54Z" style="stroke:black;stroke-width:1px;"/>
            </g>
        </g>
    </g>
</svg>
